<svg id="logo" xmlns="http://www.w3.org/2000/svg" viewBox="0 0 170 170"><path d="M104.86,140A53.2,53.2,0,0,1,66,139.73c.06.41.1.64.13.87a20.32,20.32,0,0,1,.23,2.44,4,4,0,0,0,.34,1.75,13.31,13.31,0,0,0,3.22,4.47,28.25,28.25,0,0,1,5.48,6.12c.7,1.2,1.31,2.45,1.9,3.7.35.75.15,1.13-.65,1.36a2.2,2.2,0,0,1-1.05,0,15.9,15.9,0,0,0-8.85.64,19,19,0,0,0-5.64,2.74,8.14,8.14,0,0,1-5.2,1.69,2.33,2.33,0,0,1-2.12-1.15,101.62,101.62,0,0,0-6.19-8.19,4.58,4.58,0,0,0-3.93-1.89,25.94,25.94,0,0,1-10.86-2.52,16.73,16.73,0,0,1-4.9-3.73c-1-1.08-2.1-2.13-3.05-3.29-1.13-1.37-2.18-2.81-3.22-4.26-1.64-2.29-3.24-4.61-4.86-6.91a8.27,8.27,0,0,0-.71-.94,24.45,24.45,0,0,1-3.76-5.57c-.4-.74-.68-1.56-1-2.35-.16-.38-.32-.76-.53-1.24a1.57,1.57,0,0,1,1.34-.89c1.19-.17,2.39-.37,3.71-.58-.49-1.2-1-2.42-1.49-3.61-.88-2-1.92-3.91-2.7-5.93a19,19,0,0,1-1.38-7c0-1.78.1-3.55.1-5.33,0-2.28-.08-4.55-.09-6.83a7.58,7.58,0,0,1,.71-3.2,6.79,6.79,0,0,0,.51-1.29c.49-1.91.68-2.09,2.64-2.33.1-.38.22-.82.32-1.25a2.84,2.84,0,0,1,1.64-2.33,3.44,3.44,0,0,1,4.05.88,8.27,8.27,0,0,0,1.82,1.58,9.36,9.36,0,0,1,3.54,5.31c.19.69.31,1.39.53,2.07a1.31,1.31,0,0,0,.54.73,7.54,7.54,0,0,1,3.38,3.88,22.62,22.62,0,0,1,1.25,3.3,32.76,32.76,0,0,0,3.57,8.21c.91,1.45,1.76,2.94,2.64,4.4a.92.92,0,0,0,.51.4l-.44-1a52.45,52.45,0,0,1-4.84-25A53,53,0,0,1,69.54,39.8a50.24,50.24,0,0,1,20.18-2.33c18.27,1.77,32.16,10.59,41.72,26.25a4.16,4.16,0,0,0,1.22,1.58c.25.14.38.51.52.79a53.8,53.8,0,0,1,1.88,44.21,5.89,5.89,0,0,0-.26.7s0,.13.07.29a41.67,41.67,0,0,0,3.73-6.91c.68-1.87,1.26-3.79,2-5.65A23,23,0,0,1,142,96a5.21,5.21,0,0,1,2.33-2.29,1.48,1.48,0,0,0,.84-1.14,13.64,13.64,0,0,1,.62-2.48,9.76,9.76,0,0,1,3.15-4.49,11.5,11.5,0,0,0,2.16-1.85,3.28,3.28,0,0,1,4.7-.29,4,4,0,0,1,.8,1.59,10.89,10.89,0,0,1,.34,1.47,6.7,6.7,0,0,0,.66.12,2,2,0,0,1,2,1.88,3.09,3.09,0,0,0,.21.82,12.59,12.59,0,0,1,1.1,6.54c0,1.14-.16,2.28-.16,3.42,0,1.31.09,2.63.16,3.95a22.75,22.75,0,0,1-2.25,11.31,76.75,76.75,0,0,0-3.17,7.12c-.05.13-.08.26-.12.4,1.2.19,2.35.38,3.5.54a1.84,1.84,0,0,1,1.48.86c-.23.6-.41,1.21-.68,1.77-.61,1.25-1.19,2.51-1.91,3.7s-1.48,2.08-2.22,3.13c-1.51,2.11-3,4.24-4.54,6.34-1.68,2.31-3.31,4.66-5.13,6.85a43.56,43.56,0,0,1-4.43,4.48,17.51,17.51,0,0,1-7.82,3.74,28.56,28.56,0,0,1-7.31.92,2.24,2.24,0,0,0-2.06,1c-.77,1.07-1.72,2-2.51,3.06-1.54,2-3,4-4.51,6.11a2.13,2.13,0,0,1-1.77,1,8.25,8.25,0,0,1-5.51-1.71,19.06,19.06,0,0,0-5.65-2.73,16.23,16.23,0,0,0-5.77-1c-.85,0-1.7.15-2.55.24a4.83,4.83,0,0,1-1,.15c-1.16-.14-1.49-.62-1.07-1.61A22.24,22.24,0,0,1,99,151.37c1-.93,1.94-1.89,2.93-2.82a13.34,13.34,0,0,0,2.76-4.41,1.2,1.2,0,0,0,.08-.42C104.78,142.53,104.81,141.33,104.86,140Zm17.43-76.9,0,0-.68-.9,0,0-.9-1.11,0,0-1.31-1.64-.3-.3-2.49-2.48-.08-.09-2.93-2.38,0,0-.9-.67,0,0a2.46,2.46,0,0,0-1.64-1.09l-1-.85L109,51.11l0,0-1.54-.89,0,0a6.79,6.79,0,0,0-.83-.61,45.42,45.42,0,0,0-34.47-3.35,46.48,46.48,0,1,0,59.12,38.88,47.72,47.72,0,0,0-5.47-16.78,8.25,8.25,0,0,0-.62-.84l0,0-.68-1.12,0,0L122.94,64l0,0Zm-100.77,23c.33,2,.68,3.83,1,5.69a26.78,26.78,0,0,0,2,7.2,5.47,5.47,0,0,1,.32,3.43,6.65,6.65,0,0,0,0,3.7,15.13,15.13,0,0,0,1.65,3.23,21.41,21.41,0,0,1,2.84,5.85A10.55,10.55,0,0,0,30.92,119a.55.55,0,0,1-.09.89,7.94,7.94,0,0,1-2.08-3.41,35.77,35.77,0,0,0-1.53-4.09,45.09,45.09,0,0,0-2.48-4.24,7.73,7.73,0,0,1-.77-6,4.79,4.79,0,0,0-.26-2.82,33.41,33.41,0,0,1-1.53-4.66c-.47-2.08-.72-4.21-1.09-6.32a8.74,8.74,0,0,0-1.24-3.61,2.73,2.73,0,0,0-3.72-1c-.32.17-.72.49-.78.79A16.28,16.28,0,0,0,15.23,87c0,.11.15.23.25.33a9.14,9.14,0,0,1,1.78,3.25,37.53,37.53,0,0,1,1.55,6A8.06,8.06,0,0,1,19,98.25c0,2-.08,4-.12,6a9.44,9.44,0,0,1,0,1.6,3.26,3.26,0,0,0,.23,1.88,11,11,0,0,0,1.93,3.3,18.28,18.28,0,0,1,4.18,9.45,5.87,5.87,0,0,1,0,1.39c0,.14-.28.26-.5.46a19.26,19.26,0,0,0-3.65-9.84c-.42-.54-.81-1.09-1.24-1.61A11,11,0,0,1,18,107.09a2.3,2.3,0,0,1-.07-.74c.09-1.38.27-2.75.28-4.12,0-1.67-.11-3.34-.22-5a19.16,19.16,0,0,0-.35-2.1,22.26,22.26,0,0,0-2.11-6.46,3,3,0,0,0-1.22-1.13c-1.05-.56-1.88-.07-2.1,1.11a12.06,12.06,0,0,1-.38,1.43c-.13.4-.33.78-.45,1.19a15.51,15.51,0,0,0-.32,4.66c0,2,.1,4,0,6a27.8,27.8,0,0,0,.24,6.38,21.75,21.75,0,0,0,1.82,5.8,51.67,51.67,0,0,1,3.44,8.06,17.3,17.3,0,0,1,2.19.78c1.3.66,2.57,1.38,3.81,2.15a6.61,6.61,0,0,1,1.54,1.3c1.64,2,3.19,4.09,4.86,6.08a10.87,10.87,0,0,0,4.26,3.13c1.73.71,3.59.14,5.36.46.09,0,.2-.06.3-.1a2.74,2.74,0,0,1,1.79,0,5.41,5.41,0,0,0,1.25.24,10,10,0,0,1,4.35,1.36,2.24,2.24,0,0,1,1.41,1.56c-.47-.18-.79-.27-1.09-.42s-.8-.45-1.21-.66a12.52,12.52,0,0,0-5.28-1.19c-1.2,0-2.45,0-3.67.1a9,9,0,0,1-3.24-.35,9.3,9.3,0,0,1-3.65-2.35c-1-1-1.93-2.19-2.87-3.31s-2-2.37-2.95-3.63a5.77,5.77,0,0,0-2-1.71,13.44,13.44,0,0,1-1.85-1.06,7.64,7.64,0,0,0-5.67-1.38,4.87,4.87,0,0,0-2.39.6,7.3,7.3,0,0,0,.27,1,26.5,26.5,0,0,0,3.33,5.83c1.69,2.3,3.53,4.49,5.11,6.86A68.44,68.44,0,0,0,29.13,148a16.44,16.44,0,0,0,3.64,2.75,15.79,15.79,0,0,0,2.61,1.2,28.69,28.69,0,0,0,7.34,1.39c1.13.07,2.27,0,3.4,0a16.28,16.28,0,0,0,6.31-.83c.36-.13.86-.57,1.07.07s-.43.66-.8.81a14.82,14.82,0,0,1-4.38.92c-.3,0-.59.09-1.08.16.48.56.86,1,1.21,1.42q2.44,3.1,4.88,6.22c.53.68,1.06,1.35,1.52,2.06a1.13,1.13,0,0,0,1.19.49,7.08,7.08,0,0,0,3.84-1.15c.62-.43,1.23-.86,1.86-1.25a21.87,21.87,0,0,1,6.55-2.57,14,14,0,0,1,7.19,0,7.34,7.34,0,0,0,1.15.08c-.71-1.36-1.26-2.55-1.93-3.67a32.13,32.13,0,0,0-5.78-6.43,9.56,9.56,0,0,1-2.5-3.43,5.58,5.58,0,0,0-.37-.62c-.43.53-.76,1-1.16,1.4s-.64.78-1.07.41.11-.71.33-1a6,6,0,0,0,1.14-1.87,8.3,8.3,0,0,0-.1-4,2.33,2.33,0,0,0-1.39-1.71,52.56,52.56,0,0,1-22.51-19.18c-.43-.65-1-1.22-1.47-1.83-1-1.18-2-2.31-2.88-3.58-1.15-1.71-2.16-3.52-3.24-5.29a31.25,31.25,0,0,1-3.26-7.64,18.66,18.66,0,0,0-2.37-5.36,3.55,3.55,0,0,0-1.53-1.4c.08.86.19,1.59.22,2.33a24.11,24.11,0,0,0,.93,6.21,15.77,15.77,0,0,0,1.21,2.73c.81,1.5,1.6,3,2.54,4.44a18.74,18.74,0,0,0,4.6,4.88c.28.2.66.4.69.93-.2,0-.36,0-.45-.06A41.06,41.06,0,0,1,33,113.34a25.07,25.07,0,0,1-4.4-6.29A28.46,28.46,0,0,1,27,103.34,23.9,23.9,0,0,1,26,96.72a7.62,7.62,0,0,0-.11-1.06q-.37-1.77-.78-3.54a12.48,12.48,0,0,0-1.71-4.23A4.82,4.82,0,0,0,21.52,86.11Zm123.06,8.3a4.48,4.48,0,0,0-1.72,1.68,21.15,21.15,0,0,0-2.23,5.08,39.43,39.43,0,0,1-1.92,5.09c-1,2.08-2.24,4-3.4,6.06-.56,1-1.16,1.88-1.8,2.78-1.08,1.51-2.22,3-3.32,4.46-.61.83-1.17,1.71-1.79,2.53A52.92,52.92,0,0,1,107.11,139a1.7,1.7,0,0,0-1.22,1.45c0,.1-.06.2-.08.31-.39,2.12-.58,4.2,1.32,5.81a.18.18,0,0,1,.07.08c0,.22.2.51.11.66-.17.32-.51.23-.73,0-.39-.36-.74-.76-1.1-1.15a7.1,7.1,0,0,1-.46-.6,2.47,2.47,0,0,0-.29.42,10.88,10.88,0,0,1-2.9,3.92,30.68,30.68,0,0,0-5.47,6.13,16,16,0,0,0-1.77,3.69l1.12-.12c1-.13,1.9-.31,2.85-.37a15.94,15.94,0,0,1,5.89.88,19.82,19.82,0,0,1,6,2.86,8.33,8.33,0,0,0,3.79,1.62,2.39,2.39,0,0,0,2.65-1.22,69.86,69.86,0,0,1,6.35-8.2c.18-.2.31-.44.55-.77l-.94-.11c-1-.14-1.91-.23-2.85-.43a10.87,10.87,0,0,1-2-.7.81.81,0,0,1-.36-.65c.08-.36.41-.31.7-.18a18.39,18.39,0,0,0,8.08,1,53.86,53.86,0,0,0,6.68-.8,15.55,15.55,0,0,0,8-3.82,38.3,38.3,0,0,0,4.18-4.27c1.74-2.12,3.33-4.37,5-6.58s3.16-4.39,4.75-6.59c.7-1,1.48-1.92,2.1-2.95s1.3-2.38,1.89-3.59a6,6,0,0,0,.28-1.27c-.82-.16-1.51-.36-2.21-.43a7.88,7.88,0,0,0-5.78,1.33c-.6.44-1.31.72-1.94,1.13a7.19,7.19,0,0,0-1.61,1.2c-1,1.09-1.83,2.26-2.73,3.4a24.09,24.09,0,0,1-4.8,5.13,8.19,8.19,0,0,1-5.69,1.57,21.15,21.15,0,0,1-3.46-.15,1.44,1.44,0,0,0-.53.07,7.66,7.66,0,0,1-1,.21,10.56,10.56,0,0,0-5,1.67c-.29.18-.58.44-1,.12a3,3,0,0,1,1.52-1.39c1.94-1.09,4.13-1.26,6.26-1.63a.5.5,0,0,1,.21,0,5.24,5.24,0,0,0,2.83.13,4.72,4.72,0,0,1,.64,0,6.07,6.07,0,0,0,3.42-.54,12.19,12.19,0,0,0,4-3.26c1.18-1.51,2.37-3,3.58-4.51a11.49,11.49,0,0,1,1.79-2c.83-.66,1.83-1.1,2.71-1.7a9.8,9.8,0,0,1,3.56-1.64.81.81,0,0,0,.7-.69,37.11,37.11,0,0,1,2.83-6.8,24.79,24.79,0,0,0,1.74-4.47,20.39,20.39,0,0,0,.76-7.29,27.08,27.08,0,0,1-.13-3c0-2.24.12-4.48.16-6.72a4.15,4.15,0,0,0-.15-1.16c-.36-1.33-.74-2.66-1.13-4a1.27,1.27,0,0,0-1.7-.86,2.39,2.39,0,0,0-1.61,1.45,40.55,40.55,0,0,0-1.58,4.31,27.62,27.62,0,0,0-.89,4.92,37.4,37.4,0,0,0,0,6.26c.05.53,0,1.06,0,1.59a5.42,5.42,0,0,1-.09,1.46,11.46,11.46,0,0,1-2.23,4.22,16.68,16.68,0,0,0-3.83,7.78c-.18,1-.37,1.92-.57,2.93-.59-.12-.49-.56-.47-.91a16.68,16.68,0,0,1,2.81-8.42c.6-.88,1.25-1.74,1.93-2.56a10.87,10.87,0,0,0,1.65-3.45,1.33,1.33,0,0,0,.06-.53c0-.7-.07-1.41-.14-2.11a33.92,33.92,0,0,1,0-5.52c.08-1.13.32-2.25.43-3.38a23.52,23.52,0,0,1,1.57-5.64,7.62,7.62,0,0,1,1.29-2.2,1.52,1.52,0,0,0,.42-1.52c-.16-.57.29-1.21-.18-1.75a3,3,0,0,0-.27-.33,2.78,2.78,0,0,0-3.91.45,7,7,0,0,0-1.09,2.3c-.42,1.83-.69,3.7-1,5.56a26.77,26.77,0,0,1-2,7,4.47,4.47,0,0,0-.28,2.91,7.14,7.14,0,0,1-.13,4.52,19.29,19.29,0,0,1-1.59,3,20.48,20.48,0,0,0-3.11,6.76,6.62,6.62,0,0,1-2.12,3.35c-.45-.47-.05-.75.11-1.06a10.72,10.72,0,0,0,1.24-2.46,20.55,20.55,0,0,1,1.72-4.48,43.9,43.9,0,0,1,2.26-3.87,7.1,7.1,0,0,0,.8-5.66,5.42,5.42,0,0,1,.28-3.23,41.77,41.77,0,0,0,1.59-5c.43-1.87.64-3.79,1-5.69.12-.72.29-1.44.47-2.34-.32.2-.47.28-.6.38a7.76,7.76,0,0,0-2.4,3.61,25.27,25.27,0,0,0-1.23,4.86c-.35,2-.45,4.1-.78,6.13a16.46,16.46,0,0,1-1,3.58,45.85,45.85,0,0,1-2.17,4.17,19.43,19.43,0,0,1-6.42,7,2.3,2.3,0,0,1-.6.16l-.11-.21,1.55-1.41c.75-.71,1.52-1.39,2.23-2.14a24.8,24.8,0,0,0,3.69-5.49,25.24,25.24,0,0,0,1.66-3.81C144.3,100.23,144.13,97.38,144.58,94.41ZM48,122.61c-8.23-10.35-12.31-22-11.38-35.22A47.4,47.4,0,0,1,53,54.21a48.64,48.64,0,0,1,61.53-2.35,47,47,0,0,1,17.94,27.37c3.89,16.64-.2,31.42-11.15,44.43a5.23,5.23,0,0,0,1.87-1.55,48.46,48.46,0,0,0,11.12-29.27,49.83,49.83,0,0,0-1-12.13A49.24,49.24,0,0,0,36.17,95.57,48.54,48.54,0,0,0,46,120.64,17.31,17.31,0,0,0,47.19,122,7,7,0,0,0,48,122.61Zm13.72,11a4.3,4.3,0,0,0,1.9,1.5,49.1,49.1,0,0,0,31.28,4,47.4,47.4,0,0,0,13.54-4.87,3.34,3.34,0,0,0,1.62-1.44C94.07,141.46,78,141.77,61.72,133.58Zm-11.55-8.37c1.22,1.85,7.26,6.66,8.75,6.86Z"/><path d="M66.09,34.29c-.77.36-1,0-1.22-.54-1.21-2.93-2.45-5.85-3.66-8.79q-4-9.63-7.91-19.29c-.15-.37-.68-.92,0-1.17s.61.47.76.83L65.67,33.17C65.82,33.52,66,33.89,66.09,34.29Z"/><path d="M140.13,70.58l-.14-.91c.9-.38,1.74-.76,2.59-1.11l26-10.72a3.69,3.69,0,0,1,.9-.31.73.73,0,0,1,.5.26c0,.06-.08.33-.19.43a2.16,2.16,0,0,1-.57.28l-28,11.69C140.87,70.32,140.54,70.43,140.13,70.58Z"/><path d="M103.89,34.27c.31-.8.61-1.6.94-2.38l11-26.45a3.91,3.91,0,0,1,.37-.77c.08-.12.36-.24.43-.19A.66.66,0,0,1,117,5a4.44,4.44,0,0,1-.33.9l-9,21.86c-.84,2-1.7,4.08-2.56,6.11C104.79,34.5,104.77,34.49,103.89,34.27Z"/><path d="M30,69.7l-.13.9c-.82-.32-1.54-.58-2.26-.88L.87,58.55c-.35-.15-1-.21-.83-.76s.79-.17,1.17,0q13.93,5.73,27.87,11.5C29.37,69.4,29.66,69.54,30,69.7Z"/><path d="M132.06,55.25c-.24-.63.16-.85.44-1.08,1-.84,1.95-1.67,2.95-2.48l19.62-15.91a3.64,3.64,0,0,1,.6-.43.33.33,0,0,1,.4.47,1.92,1.92,0,0,1-.45.45L134.07,54a14.7,14.7,0,0,1-1.27,1A2.92,2.92,0,0,1,132.06,55.25Z"/><path d="M119.5,42.66c-.1-.27-.29-.51-.23-.63A5.06,5.06,0,0,1,120,41q4.27-5.22,8.55-10.44,4.75-5.77,9.57-11.53c.23-.28.45-.95.94-.51s-.17.68-.39.95Q130,30.08,121.37,40.71c-.4.5-.83,1-1.25,1.46A6.72,6.72,0,0,1,119.5,42.66Z"/><path d="M31.13,18.25a4,4,0,0,1,.54.44c.53.63,1,1.27,1.56,1.91L49.51,40.32c.38.47.76,1,1.09,1.45.11.17,0,.44,0,.67-.22,0-.49,0-.64-.16a8.32,8.32,0,0,1-.93-1L33.42,22c-.74-.92-1.5-1.82-2.24-2.74a1.31,1.31,0,0,1-.3-.54C30.85,18.59,31,18.44,31.13,18.25Z"/><path d="M38.08,55c-.35.44-.63.27-.89.07-.57-.43-1.14-.86-1.69-1.32q-8-6.57-15.93-13.15l-4.46-3.68-.91-.74c-.22-.18-.51-.38-.24-.69s.51,0,.72.14l6.72,5.47Q29,47.23,36.6,53.41A4.14,4.14,0,0,1,38.08,55Z"/><path d="M77.68,31.78c-.11-.72-.26-1.45-.31-2.17Q76.67,18.51,76,7.42a3.85,3.85,0,0,1,0-1c0-.16.24-.29.36-.43.12.11.31.21.35.34a5.32,5.32,0,0,1,.16,1.06q.64,10.73,1.27,21.44c0,.75,0,1.5,0,2.25a3.32,3.32,0,0,1-.15.68Z"/><path d="M93.84,5.91A6.71,6.71,0,0,1,94,7c-.07,1.82-.16,3.64-.28,5.45q-.48,7.68-1,15.36c-.06.93-.14,1.85-.25,2.77a9.52,9.52,0,0,1-.25,1.18H92a3.05,3.05,0,0,1-.15-.65c0-1.39,0-2.78.07-4.16q.6-9.93,1.24-19.85C93.19,6.73,93.06,6.24,93.84,5.91Z"/><path d="M57.71,37.15a10.47,10.47,0,0,1-.55-.91L47.27,17.51c-.07-.13-.19-.26-.18-.39a2.91,2.91,0,0,1,.16-.63,2.27,2.27,0,0,1,.52.25,1.92,1.92,0,0,1,.27.46l9.69,18.48a4.68,4.68,0,0,1,.44,1c0,.16-.12.38-.19.56Z"/><path d="M112.1,37.4c-.16-.37-.33-.56-.29-.7a3.78,3.78,0,0,1,.38-.88L122,17.16l0-.09c.19-.28.3-.79.75-.54s.13.63,0,.94l-10,18.91C112.6,36.66,112.41,36.91,112.1,37.4Z"/><path d="M32.87,62.33c-.31.17-.48.36-.62.33a2.62,2.62,0,0,1-.78-.32L12.64,52.46c-.3-.15-.79-.28-.58-.73s.6-.18.91,0L32.14,61.85C32.33,62,32.5,62.08,32.87,62.33Z"/><path d="M137.66,62.73c-.1-.07-.25-.13-.29-.24a.41.41,0,0,1,.07-.37,2.86,2.86,0,0,1,.62-.4q9.45-5,18.91-10a1.05,1.05,0,0,1,.48-.2.89.89,0,0,1,.51.23s-.08.32-.19.43a1.37,1.37,0,0,1-.45.28l-18.84,9.87C138.23,62.48,138,62.59,137.66,62.73Z"/><path d="M141.78,76.64c-.09-.09-.37-.25-.36-.38a.72.72,0,0,1,.42-.48c.89-.27,1.78-.51,2.68-.74l10.67-2.63c.34-.08.78-.26.93.2s-.36.61-.71.7l-13.06,3.23Z"/><path d="M71.4,33.06c-.33-1.24-.67-2.47-1-3.71-.81-3.24-1.6-6.49-2.4-9.75a3.35,3.35,0,0,1-.14-.83c0-.15.14-.41.23-.41a.76.76,0,0,1,.54.19,1.06,1.06,0,0,1,.17.49Q70.44,25.58,72,32.11a1.91,1.91,0,0,1,.1.52C72.16,33,71.92,33.12,71.4,33.06Z"/><path d="M97.82,32.62c.19-.86.34-1.6.52-2.32q1.38-5.53,2.78-11.08c.09-.38.09-1,.67-.88s.31.69.21,1.07q-1.53,6.22-3.07,12.43a3.56,3.56,0,0,1-.25.82c-.1.18-.33.28-.5.42Z"/><path d="M28.39,76.68c-.72-.16-1.45-.3-2.17-.47l-11.4-2.83a3.19,3.19,0,0,1-.8-.29.5.5,0,0,1-.19-.44.54.54,0,0,1,.38-.3,1.7,1.7,0,0,1,.63.07L27.59,75.6a5.79,5.79,0,0,1,.71.21C28.66,76,28.67,76.2,28.39,76.68Z"/><path d="M40.15,52.2l-1.23-1-6.48-5.4a3.8,3.8,0,0,1-.62-.58c-.12-.17-.24-.5-.16-.64.18-.3.49-.19.75,0a2,2,0,0,1,.26.18l8.06,6.64Z"/><path d="M47.69,44.63l-.7.57c-.32-.36-.61-.67-.87-1q-2.86-3.47-5.71-6.92c-.24-.3-.78-.68-.36-1.07s.81.15,1.08.47c2.09,2.47,4.15,5,6.22,7.46C47.46,44.28,47.55,44.44,47.69,44.63Z"/><path d="M123,45.18l-.59-.47c0-.11,0-.2,0-.24q3.28-4,6.59-8c.07-.09.14-.2.23-.23a4.83,4.83,0,0,1,.66-.14,2.17,2.17,0,0,1,0,.67,1.09,1.09,0,0,1-.3.43q-3.15,3.82-6.32,7.64C123.23,45,123.14,45,123,45.18Z"/><path d="M129.88,52.22l-.53-.64c0-.12,0-.21.08-.24q4-3.31,7.95-6.61a1.11,1.11,0,0,1,.45-.27.57.57,0,0,1,.47.1.55.55,0,0,1,0,.49,1.08,1.08,0,0,1-.35.39C135.31,47.68,132.64,49.91,129.88,52.22Z"/><path d="M75.22,32c-.65.34-.87.14-1-.35-.21-1.27-.44-2.53-.64-3.79-.26-1.55-.51-3.09-.74-4.64-.06-.36-.24-.89.28-1s.54.45.6.81C74.26,26.05,74.74,29,75.22,32Z"/><path d="M27.58,79.67c-1.09-.16-2.14-.31-3.2-.48-1.9-.3-3.8-.59-5.7-.91-.38-.07-1,0-.87-.66s.63-.31,1-.25l8.24,1.34C27.55,78.79,27.91,78.91,27.58,79.67Z"/><path d="M94.8,32.1c.17-1.18.33-2.3.51-3.42.29-1.86.58-3.72.89-5.58.06-.36,0-.91.58-.84s.37.59.31,1c-.44,2.77-.89,5.54-1.33,8.31C95.68,32,95.58,32.38,94.8,32.1Z"/><path d="M142.34,79.6c-.22-.65.06-.8.53-.88,1.58-.25,3.15-.54,4.73-.8,1.16-.19,2.32-.35,3.48-.53a1.72,1.72,0,0,1,.62-.07,1.86,1.86,0,0,1,.54.39c-.13.15-.24.39-.4.42-.9.2-1.81.36-2.72.51-1.93.31-3.86.62-5.8.91A7.55,7.55,0,0,1,142.34,79.6Z"/><path d="M100.46,33.42c.42-1.28.8-2.42,1.19-3.57.61-1.82,1.21-3.65,1.84-5.47.12-.35.12-1,.72-.8s.16.7.06,1c-.82,2.58-1.67,5.15-2.52,7.72-.14.43-.35.84-.54,1.3Z"/><path d="M141.05,74l-.22-.65a1.35,1.35,0,0,1,.28-.2c2-.71,4-1.43,6-2.12.91-.31,1.83-.57,2.75-.84a3.06,3.06,0,0,1,.73-.15.44.44,0,0,1,.31.24.42.42,0,0,1-.1.36,2.72,2.72,0,0,1-.66.33Z"/><path d="M29.16,73.3l-.26.7-4.48-1.52c-1.48-.5-3-1-4.44-1.47a2.63,2.63,0,0,1-.69-.28c-.12-.08-.26-.36-.22-.41a1.25,1.25,0,0,1,.49-.29c.05,0,.13,0,.2.06l9,3A3.08,3.08,0,0,1,29.16,73.3Z"/><path d="M69.41,33.38c-.26.24-.52.34-.76-.05a2.26,2.26,0,0,1-.21-.48q-1-3-2-6c-.21-.64-.41-1.29-.6-1.94a5.31,5.31,0,0,1-.24-1c0-.12.14-.31.26-.39s.28.06.35.15a1.31,1.31,0,0,1,.24.47l3,9A.65.65,0,0,1,69.41,33.38Z"/><path d="M115.05,39a2.37,2.37,0,0,1,.15-.73q2-3.28,4-6.55c.17-.27.44-.57.76-.26a.83.83,0,0,1,0,.74,9.22,9.22,0,0,1-.75,1.29c-1,1.59-2,3.18-3.07,4.75a8.54,8.54,0,0,1-.8.91Z"/><path d="M54.58,39.16a9.71,9.71,0,0,1-.77-.94c-1.24-1.91-2.45-3.83-3.68-5.75-.07-.12-.15-.24-.21-.37-.13-.28-.19-.6.15-.72.17-.06.43.11.63.21s.14.16.19.25q1.9,3.09,3.8,6.18C54.87,38.33,55.18,38.68,54.58,39.16Z"/><path d="M135.32,59.09a6.8,6.8,0,0,1,.69-.64c2-1.31,4.06-2.61,6.1-3.91a.88.88,0,0,1,.38-.18c.19,0,.54,0,.55.13a1.25,1.25,0,0,1-.13.65c0,.12-.21.18-.33.26-2,1.25-4.05,2.5-6.09,3.73C136.17,59.33,135.79,59.69,135.32,59.09Z"/><path d="M27.31,54.27c.23.11.43.18.61.29l6,3.85a2.33,2.33,0,0,1,.54.5.42.42,0,0,1,0,.38.4.4,0,0,1-.37.12,3.3,3.3,0,0,1-.76-.36c-2-1.2-3.94-2.42-5.9-3.63A1.47,1.47,0,0,1,27,55a.53.53,0,0,1-.06-.47C27,54.41,27.17,54.36,27.31,54.27Z"/><path d="M57.29,26.94c.11.08.26.13.31.24q1.93,4.16,3.82,8.29c-.46.5-.73.42-1-.06-.37-.84-.77-1.68-1.14-2.53-.72-1.66-1.44-3.33-2.14-5a4.55,4.55,0,0,1-.19-.83Z"/><path d="M83.49,32.11c-.48.18-.76.12-.78-.39l0-1.07c0-2.11-.08-4.21-.1-6.32,0-.38-.16-1,.46-1s.34.62.35,1c.07,2.28.11,4.57.15,6.85C83.55,31.49,83.51,31.81,83.49,32.11Z"/><path d="M31.1,65.89c-1.23-.54-2.44-1-3.63-1.59-1.46-.65-2.91-1.33-4.36-2a1,1,0,0,1-.37-.2c-.1-.11-.22-.32-.17-.43s.26-.15.42-.18.19.07.29.11l7.52,3.29C31.19,65.06,31.53,65.25,31.1,65.89Z"/><path d="M138.9,65.87c-.41-.5-.25-.74.16-.92l2.62-1.19c1.64-.71,3.27-1.42,4.91-2.11.3-.12.65-.43,1,.21a14.78,14.78,0,0,1-2.78,1.4c-1,.48-1.93.91-2.91,1.34S139.91,65.44,138.9,65.87Z"/><path d="M112.93,27a2.49,2.49,0,0,1-.06.73c-1.1,2.55-2.22,5.09-3.34,7.63-.22.5-.24.49-.93.21,1.18-3,2.56-5.8,3.91-8.67Z"/><path d="M86.51,32.2c0-.45-.06-.8-.06-1.15,0-2.24.07-4.49.12-6.73,0-.39-.14-1,.49-1s.34.62.34,1q0,3.53-.12,7.05C87.26,32.06,87.23,32.06,86.51,32.2Z"/><path d="M45.61,46.34l-.74.65c-.73-.85-1.44-1.65-2.1-2.49a.79.79,0,0,1-.1-.73c.27-.34.57-.1.79.15Z"/><path d="M128.12,50.08l-.65-.74,2.48-2.1c.05,0,.11-.12.17-.12.23,0,.45.05.68.08,0,.2,0,.45-.12.58a12.87,12.87,0,0,1-1,.95Z"/><path d="M41.9,50.11,39.44,48l-.07-.08c-.21-.22-.38-.51-.09-.73a.73.73,0,0,1,.67,0c.83.66,1.64,1.36,2.54,2.11Z"/><path d="M124.37,46.36l2.1-2.39c.22-.24.49-.52.81-.26s.09.64-.14.91c-.63.76-1.28,1.51-2,2.35Z"/><path d="M119.22,59.27l.3.3a2.82,2.82,0,0,0,1.31,1.64l0,0,.9,1.11,0,0,.68.9,0,0,.68.9,0,0,1.74,2.62,0,0,.68,1.12,0,0c.12.29.2.6.35.88a46.13,46.13,0,0,1,5.53,18.73,47.88,47.88,0,0,1-.93,13.51,45.92,45.92,0,1,1-23.76-50.86c.35.17.72.29,1.08.44l0,0,1.54.89,0,0a1.37,1.37,0,0,0,1.22.66l1,.85,1.64,1.09,0,0,.9.67,0,0,2.73,2.38s.13,0,.2,0l.08.09c0,.13,0,.3.14.38C117.64,57.88,118.43,58.57,119.22,59.27ZM87.5,109.42c.62-.16,1.23-.32,1.86-.46a16.36,16.36,0,0,0,8-4.17,4.12,4.12,0,0,0,.69-.82c.08-.13,0-.38,0-.57a1.54,1.54,0,0,0-.58.08c-.21.13-.34.37-.53.52a29.59,29.59,0,0,1-2.5,2c-5.86,3.83-15.19,3.84-21-.61-.23-.18-.49-.32-.73-.48a6.57,6.57,0,0,0,2.48,2.18,18.62,18.62,0,0,0,10.17,2.36l2.14,0a2.34,2.34,0,0,1-.48.18,18.17,18.17,0,0,1-10.48-1.21c-4.59-2-8-5.1-9.32-10.18a3.12,3.12,0,0,0-.28-.53,5.85,5.85,0,0,0,.62,3.29,15.06,15.06,0,0,0,6.09,6.85A19.68,19.68,0,0,0,86,110.62a16.46,16.46,0,0,0,2.31-.42.58.58,0,0,0,.35-.44c0-.13-.24-.34-.41-.38A2.58,2.58,0,0,0,87.5,109.42Zm-2.38-24A4.39,4.39,0,0,0,81,91.19a4.27,4.27,0,0,0,4.77,2.93,4.17,4.17,0,0,0,2.54-1.45,4.87,4.87,0,0,0,1.29-3A4.45,4.45,0,0,0,85.12,85.42ZM69,58.88l.13.24a8.33,8.33,0,0,0,.84-.29,33.46,33.46,0,0,1,19-2.6,38.65,38.65,0,0,1,23.54,12.66c.26.29.51.6.77.89s.42.44.73.2.14-.52-.05-.75c-.51-.6-1-1.22-1.55-1.78-9-9.15-19.82-13.42-32.67-12.23a25.34,25.34,0,0,0-9.94,3.11C69.51,58.49,69.25,58.69,69,58.88Zm27.17,63.61-.1-.3-.89.22a33.09,33.09,0,0,1-18.58.33A38.48,38.48,0,0,1,54,106.65a4.85,4.85,0,0,0-.5-.69c-.1-.09-.39-.17-.45-.1a.66.66,0,0,0-.2.52,2,2,0,0,0,.35.65c.7,1,1.35,2,2.12,3,7.34,8.9,16.72,13.93,28.27,14.74A26.34,26.34,0,0,0,95.13,123C95.47,122.82,95.81,122.65,96.14,122.49Zm7.66-66.88c0,.67,0,.64.45,1A52.54,52.54,0,0,1,109,59.91a48.27,48.27,0,0,1,15,23.25,25.51,25.51,0,0,1,1,11.42c-.06.39-.1.79-.15,1.19a.91.91,0,0,0,.51-.56,24.08,24.08,0,0,0,.51-2.5,23.66,23.66,0,0,0-.75-9,47.22,47.22,0,0,0-14.84-23.78,59,59,0,0,0-5.39-3.84A7.18,7.18,0,0,0,103.8,55.61ZM61.47,121.09c.07-.48-.33-.61-.59-.81a31.3,31.3,0,0,1-5.11-4.85A48.79,48.79,0,0,1,45.48,95c-1.25-5.19-1.64-10.42.09-15.62,0-.1,0-.23,0-.34a2,2,0,0,0-.7,1A28.51,28.51,0,0,0,44,83.26a26.64,26.64,0,0,0,.2,9.79,47.23,47.23,0,0,0,13.07,25,41.32,41.32,0,0,0,3.33,2.85C60.8,121.11,61.08,121.42,61.47,121.09Zm.61-53.47.23.23c.34-.24.67-.5,1-.72,2-1.23,3.94-2.6,6-3.65A32.29,32.29,0,0,1,91,60.55a30.73,30.73,0,0,1,13.42,6.55,7.37,7.37,0,0,0,.85.65.47.47,0,0,0,.46-.08.49.49,0,0,0,0-.47,3.41,3.41,0,0,0-.6-.6,31,31,0,0,0-18.2-7.49,33.58,33.58,0,0,0-24.13,7.82C62.55,67.14,62.32,67.39,62.08,67.62Zm42.07,47c-.28-.07-.36-.12-.41-.1-.26.11-.51.25-.76.37-1.94.91-3.84,1.92-5.83,2.69a32.53,32.53,0,0,1-17.76,1.76A30.89,30.89,0,0,1,62,109.78a3.78,3.78,0,0,0-.61-.59.48.48,0,0,0-.48,0,.47.47,0,0,0-.06.45,3.07,3.07,0,0,0,.52.68,31.11,31.11,0,0,0,20,10.13,33.57,33.57,0,0,0,21.87-5.14C103.47,115.14,103.75,114.91,104.15,114.62Zm16.64-35.91.29-.06a5.85,5.85,0,0,0-.25-1.1,53.81,53.81,0,0,0-2.26-4.94,38.87,38.87,0,0,0-9.53-11,37.83,37.83,0,0,0-13.8-7.53,18.46,18.46,0,0,0-5.91-.79c-.39,0-.86-.09-1.11.33.07.47.36.46.65.43a18.88,18.88,0,0,1,8.65,1.56,42,42,0,0,1,13.86,9.28,37.46,37.46,0,0,1,9.12,13.31A3.92,3.92,0,0,0,120.79,78.71ZM76.43,125.47c.06-.72-.35-.66-.69-.68a17,17,0,0,1-5.49-1.3,32.9,32.9,0,0,1-9.65-6.26c-6.16-5.6-10.91-12.12-13-20.32a3.54,3.54,0,0,0-.25-.52l-.23,0a6.77,6.77,0,0,0,.11,1.28c.27,1.11.54,2.22.92,3.3a39.53,39.53,0,0,0,9.42,14.5,36.77,36.77,0,0,0,11.8,8.36,18,18,0,0,0,5.85,1.59C75.61,125.49,76,125.47,76.43,125.47Zm11.8-52.78a15.78,15.78,0,0,0-7-.32,18,18,0,1,0,20.59,22.14,30.79,30.79,0,0,0,.55-3.59c0-.24.11-.58-.42-.64a17.56,17.56,0,0,1-6.21,13.24,17,17,0,0,1-14,4.06,17.58,17.58,0,0,1-15-18.75,17,17,0,0,1,5.38-11.45C76.61,73.06,82.07,71.64,88.23,72.69Zm11.14,46.8-.11-.29c-.36.14-.72.26-1.07.41a28.57,28.57,0,0,1-8.18,2A38,38,0,0,1,72.18,119c-6.34-2.54-11.88-6.18-15.47-12.25-.07-.12-.25-.17-.4-.27-.3.49,0,.74.22,1a27.41,27.41,0,0,0,9.18,9,40,40,0,0,0,19.08,6,28.29,28.29,0,0,0,11.78-1.65C97.52,120.37,98.44,119.91,99.37,119.49ZM66.17,62.3l.12.2.9-.45c1.63-.72,3.22-1.55,4.89-2.13a35.92,35.92,0,0,1,15.41-1.57,37.68,37.68,0,0,1,14,4.11A25.31,25.31,0,0,1,110,69.31c.18.23.31.58.89.34-.37-.49-.67-1-1-1.36a27.31,27.31,0,0,0-9.55-7.08A39.74,39.74,0,0,0,76.91,58a25.82,25.82,0,0,0-9.66,3.56C66.88,61.77,66.53,62,66.17,62.3Zm-4.9,8.47.22.18c.34-.36.68-.71,1-1.08a21.44,21.44,0,0,1,5.14-4.16A30.65,30.65,0,0,1,86.92,62a24.56,24.56,0,0,1,6.3,1.63c.34.14.7.38,1.15,0A1.81,1.81,0,0,0,94,63a7.25,7.25,0,0,0-1.18-.51A28.77,28.77,0,0,0,80.46,61a30.14,30.14,0,0,0-13.61,4.37,17.15,17.15,0,0,0-4.45,3.82C62,69.66,61.65,70.23,61.27,70.77Zm44,40.8a1,1,0,0,0-.26,0c-.28.22-.57.43-.84.66a22.78,22.78,0,0,1-7,4.13,30.29,30.29,0,0,1-13.14,1.75,27,27,0,0,1-11.3-3.3,1,1,0,0,0-.37-.19c-.23,0-.57-.07-.67.05-.26.3,0,.53.29.66a24.43,24.43,0,0,0,2.26,1.2,30.57,30.57,0,0,0,19.15,1.75,24.16,24.16,0,0,0,8.72-3.66A11.18,11.18,0,0,0,105.25,111.57ZM59.35,95.62c.36-.33.25-.73.18-1.1a20.49,20.49,0,0,1,1.14-11.44C63,77,66.88,72.23,73.16,69.79a4.47,4.47,0,0,0,.59-.36,1.39,1.39,0,0,0-.43-.08,10.22,10.22,0,0,0-1.24.31,16.81,16.81,0,0,0-7,4.69A24.76,24.76,0,0,0,58.7,87.08a20,20,0,0,0,0,7.55C58.76,95,58.8,95.48,59.35,95.62Zm33.57,15.7v.26c.51,0,1-.07,1.55-.17a14.67,14.67,0,0,0,4.94-2,24.2,24.2,0,0,0,10.47-13.84,19.81,19.81,0,0,0,.88-7.18c0-.41,0-.87-.48-1.08-.5.2-.36.63-.38,1a35,35,0,0,1-.15,3.84,23.32,23.32,0,0,1-5.41,11.9,19.93,19.93,0,0,1-11,7A3.08,3.08,0,0,0,92.92,111.32Zm33.26-13.69c.63,0,.68-.5.75-.85a28.1,28.1,0,0,0,.51-3.16,33,33,0,0,0-.85-10.29,41.38,41.38,0,0,0-5.87-14.24,38.56,38.56,0,0,0-2.66-3.2,2.18,2.18,0,0,0-.62-.39l-.15.18.54.74c1.21,1.76,2.54,3.44,3.6,5.29a41.8,41.8,0,0,1,5.13,15.64,24.45,24.45,0,0,1-.37,9.45A3.78,3.78,0,0,0,126.18,97.63Zm-77,12.16a5.37,5.37,0,0,0-.34-.68,34.76,34.76,0,0,1-4.59-10.54c-1.75-7-2.48-14,.06-20.94a2.46,2.46,0,0,0,0-.73,1.17,1.17,0,0,0-.84.93c-.31,1-.65,2-.87,3A32.72,32.72,0,0,0,42.2,91a43.73,43.73,0,0,0,3.45,13.73,19.8,19.8,0,0,0,2.67,4.49C48.52,109.48,48.66,109.87,49.22,109.79Zm27.51,2.48c-.21-.24-.24-.31-.3-.34-.28-.14-.57-.28-.87-.41a20.9,20.9,0,0,1-6.39-4.4c-6.08-6.29-8.38-13.59-5.72-22.15,0-.1.12-.2.1-.3a4.21,4.21,0,0,0-.16-.55c-.18.08-.42.12-.51.25a4.58,4.58,0,0,0-.35.89,19.42,19.42,0,0,0-.37,11.17c1.92,7.24,6.23,12.47,13.2,15.38C75.74,112,76.14,112.07,76.73,112.27ZM95.39,68.76l-.16.22c.26.17.52.35.79.51a22.89,22.89,0,0,1,4.72,3.83c6.11,6.38,8,16.26,4.15,24a2.22,2.22,0,0,0-.22.59.41.41,0,0,0,.17.34.39.39,0,0,0,.38,0,5.16,5.16,0,0,0,.55-.9,20,20,0,0,0,1.78-11.15A22,22,0,0,0,98,70.31C97.2,69.72,96.27,69.27,95.39,68.76Zm-15.3,46.49,0,.3c.51.16,1,.35,1.51.47a26.79,26.79,0,0,0,18.2-2.27,16.18,16.18,0,0,0,5.35-4.19,4.88,4.88,0,0,0,.66-1c.07-.16-.05-.42-.13-.86a10.82,10.82,0,0,0-.82.8,16.44,16.44,0,0,1-6.37,4.92,28.1,28.1,0,0,1-15.35,2.23C82.08,115.57,81.09,115.4,80.09,115.25ZM85.78,64l0-.22a10.34,10.34,0,0,0-1.07-.25,21.79,21.79,0,0,0-6.4,0,26.57,26.57,0,0,0-12.59,5,16.05,16.05,0,0,0-4.21,4.52,4.73,4.73,0,0,0-.44,1c0,.11.1.32.22.41a.39.39,0,0,0,.38-.07,4.29,4.29,0,0,0,.49-.69,15.35,15.35,0,0,1,3.42-3.94,22.87,22.87,0,0,1,5.67-3.41A30.1,30.1,0,0,1,84.24,64Zm-40.9,7.41-.19-.17a12.77,12.77,0,0,0-1,1.3,17,17,0,0,0-2.07,5.25,45.62,45.62,0,0,0-1,15.62,52.57,52.57,0,0,0,1,5.24c.07.36.14.79.63.84.41-.34.16-.67.09-1-.32-1.61-.71-3.21-.91-4.83a43.78,43.78,0,0,1,0-10,33.85,33.85,0,0,1,2.09-9.37C43.87,73.29,44.41,72.36,44.88,71.42Zm80.92,3.4c-.65.43-.37.76-.25,1.07.35.93.76,1.85,1,2.8a47,47,0,0,1,1.62,16.73,19.18,19.18,0,0,1-1.76,7.55c0,.09,0,.23,0,.34a3.81,3.81,0,0,0,1-1.35A19.5,19.5,0,0,0,129,95.85a45.4,45.4,0,0,0-.26-11,34.9,34.9,0,0,0-2.15-8.59C126.34,75.8,126.07,75.35,125.8,74.82ZM82.46,112.13v-.27a44.76,44.76,0,0,1-4.63-1.16,21.93,21.93,0,0,1-4.32-2,19.7,19.7,0,0,1-3.74-3,26.31,26.31,0,0,1-3-3.89A12.56,12.56,0,0,1,65,97.32c-.31-1.53-.45-3.1-.68-4.7-.59.12-.55.52-.53.85a30.52,30.52,0,0,0,.39,3.82c1.57,7.18,8.46,13.94,17.17,14.84A10.09,10.09,0,0,0,82.46,112.13Zm6.81-43.87c.15.17.19.24.24.26.37.13.75.25,1.12.35a19.78,19.78,0,0,1,11.88,9.2,16.33,16.33,0,0,1,2.32,10.77,1.36,1.36,0,0,0,0,.53.47.47,0,0,0,.26.29.41.41,0,0,0,.34-.16,1.8,1.8,0,0,0,.18-.61,15.39,15.39,0,0,0-.1-5.11A19.59,19.59,0,0,0,98.23,72a18.57,18.57,0,0,0-7.41-3.67A2.43,2.43,0,0,0,89.27,68.26Zm15.12,6.14c-.46.52-.23.77,0,1a18,18,0,0,1,3.78,10.28,27.17,27.17,0,0,1-4.29,17.22c-.17.25-.3.52-.45.79a.72.72,0,0,0,.57-.27,27.12,27.12,0,0,0,1.62-2.39,27,27,0,0,0,2.9-18,17.89,17.89,0,0,0-3.22-7.72A10.61,10.61,0,0,0,104.39,74.4ZM59,82.55c.25-.49.42-.81.58-1.14.52-1.06,1-2.15,1.55-3.16A24.88,24.88,0,0,1,66.48,72a27.22,27.22,0,0,1,10.85-6c.25-.07.69,0,.69-.58a7.59,7.59,0,0,0-1.37.12,21.42,21.42,0,0,0-3,.91A28.66,28.66,0,0,0,60.39,78a25,25,0,0,0-1.53,3.17A1.2,1.2,0,0,0,59,82.55Zm29,32v.2a2.32,2.32,0,0,0,.66.15,20.86,20.86,0,0,0,2.86-.32A28.29,28.29,0,0,0,104.94,107a19.9,19.9,0,0,0,3.89-5.08,5.84,5.84,0,0,0,.38-1,.32.32,0,0,0-.54-.28,5.21,5.21,0,0,0-.46.72,22.57,22.57,0,0,1-1.53,2.43,28.27,28.27,0,0,1-17.82,10.51A8.56,8.56,0,0,0,88,114.56Zm14.89-30.31h.22a10.14,10.14,0,0,0,0-1.1,12,12,0,0,0-2.62-6.57C96.36,71.29,90.82,69,84.2,69.2a2.6,2.6,0,0,0-.74.11,2,2,0,0,0-.47.37,2.46,2.46,0,0,0,.46.5.71.71,0,0,0,.52,0,9,9,0,0,1,3.51,0,18.37,18.37,0,0,1,12.24,6.54,12.6,12.6,0,0,1,2.94,6.55A8.62,8.62,0,0,0,102.88,84.25ZM64.11,78.46,64,78.37a3.07,3.07,0,0,0-.38.44,23.19,23.19,0,0,0-1.23,2.37A27,27,0,0,0,62,100.73,17.13,17.13,0,0,0,65.82,107a3.38,3.38,0,0,0,.64.56.47.47,0,0,0,.46,0,.55.55,0,0,0,0-.46.78.78,0,0,0-.28-.32,17.58,17.58,0,0,1-4.79-8.69,27.25,27.25,0,0,1,1.82-18.67C63.86,79.08,64,78.77,64.11,78.46Zm34.06-1.91A9.23,9.23,0,0,0,94.5,73a20.22,20.22,0,0,0-13.09-2.5,15.65,15.65,0,0,0-7.59,2.95,5.44,5.44,0,0,0-.86.8.62.62,0,0,0,0,.55c0,.07.33.1.46,0a5.24,5.24,0,0,0,.61-.44,36.72,36.72,0,0,1,3.6-2.06,17.25,17.25,0,0,1,8.49-1.27,17.91,17.91,0,0,1,11.53,5Z"/><path d="M48,122.61a7,7,0,0,1-.81-.59A17.31,17.31,0,0,1,46,120.64a48.54,48.54,0,0,1-9.83-25.07,49.24,49.24,0,0,1,97.21-14.86,49.83,49.83,0,0,1,1,12.13,48.46,48.46,0,0,1-11.12,29.27,5.23,5.23,0,0,1-1.87,1.55c10.95-13,15-27.79,11.15-44.43a47,47,0,0,0-17.94-27.37A48.64,48.64,0,0,0,53,54.21a47.4,47.4,0,0,0-16.4,33.18C35.69,100.61,39.77,112.26,48,122.61Z" style="fill:#fff"/><path d="M107.56,50.29c-.36-.15-.73-.27-1.08-.44a46.15,46.15,0,1,0,23.76,50.86,47.88,47.88,0,0,0,.93-13.51,46.13,46.13,0,0,0-5.53-18.73c-.15-.28-.23-.59-.35-.88a8.25,8.25,0,0,1,.62.84,47.72,47.72,0,0,1,5.47,16.78A46.42,46.42,0,1,1,72.26,46.33a45.42,45.42,0,0,1,34.47,3.35A6.79,6.79,0,0,1,107.56,50.29Z" style="fill:#fff"/><path d="M61.72,133.58c16.32,8.19,32.35,7.88,48.34-.8a3.34,3.34,0,0,1-1.62,1.44,47.4,47.4,0,0,1-13.54,4.87,49.1,49.1,0,0,1-31.28-4A4.3,4.3,0,0,1,61.72,133.58Z" style="fill:#fff"/><path d="M50.17,125.21l8.75,6.86C57.43,131.87,51.39,127.06,50.17,125.21Z" style="fill:#fff"/><path d="M116.65,56.7c-.07,0-.16,0-.2,0l-2.73-2.38Z" style="fill:#fff"/><path d="M119.22,59.27c-.79-.7-1.58-1.39-2.35-2.1-.09-.08-.09-.25-.14-.38Z" style="fill:#fff"/><path d="M124.68,66.57,122.94,64Z" style="fill:#fff"/><path d="M120.83,61.21a2.82,2.82,0,0,1-1.31-1.64Z" style="fill:#fff"/><path d="M112.91,53.71l-1.64-1.09A2.46,2.46,0,0,1,112.91,53.71Z" style="fill:#fff"/><path d="M109.05,51.14l-1.54-.89Z" style="fill:#fff"/><path d="M121.69,62.28l-.9-1.11Z" style="fill:#fff"/><path d="M125.33,67.64l-.68-1.12Z" style="fill:#fff"/><path d="M110.23,51.77a1.37,1.37,0,0,1-1.22-.66Z" style="fill:#fff"/><path d="M122.33,63.14l-.68-.9Z" style="fill:#fff"/><path d="M123,64l-.68-.9Z" style="fill:#fff"/><path d="M113.77,54.35l-.9-.67Z" style="fill:#fff"/><path d="M69,58.88c.28-.19.54-.39.83-.55a25.34,25.34,0,0,1,9.94-3.11C92.59,54,103.42,58.3,112.41,67.45c.55.56,1,1.18,1.55,1.78.19.23.35.5.05.75s-.54,0-.73-.2-.51-.6-.77-.89A38.65,38.65,0,0,0,89,56.23a33.46,33.46,0,0,0-19,2.6,8.33,8.33,0,0,1-.84.29Z" style="fill:#fff"/><path d="M96.14,122.49c-.33.16-.67.33-1,.47a26.34,26.34,0,0,1-11.54,1.76C72,123.91,62.66,118.88,55.32,110c-.77-.93-1.42-2-2.12-3a2,2,0,0,1-.35-.65.66.66,0,0,1,.2-.52c.06-.07.35,0,.45.1a4.85,4.85,0,0,1,.5.69,38.48,38.48,0,0,0,22.57,16.09,33.09,33.09,0,0,0,18.58-.33l.89-.22Z" style="fill:#fff"/><path d="M103.8,55.61a7.18,7.18,0,0,1,1,.46,59,59,0,0,1,5.39,3.84A47.22,47.22,0,0,1,125,83.69a23.66,23.66,0,0,1,.75,9,24.08,24.08,0,0,1-.51,2.5.91.91,0,0,1-.51.56c0-.4.09-.8.15-1.19a25.51,25.51,0,0,0-1-11.42,48.27,48.27,0,0,0-15-23.25,52.54,52.54,0,0,0-4.72-3.32C103.76,56.25,103.75,56.28,103.8,55.61Z" style="fill:#fff"/><path d="M61.47,121.09c-.39.33-.67,0-.92-.18a41.32,41.32,0,0,1-3.33-2.85,47.23,47.23,0,0,1-13.07-25,26.64,26.64,0,0,1-.2-9.79A28.51,28.51,0,0,1,44.84,80a2,2,0,0,1,.7-1c0,.11.07.24,0,.34-1.73,5.2-1.34,10.43-.09,15.62a48.79,48.79,0,0,0,10.29,20.45,31.3,31.3,0,0,0,5.11,4.85C61.14,120.48,61.54,120.61,61.47,121.09Z" style="fill:#fff"/><path d="M62.08,67.62c.24-.23.47-.48.73-.69a33.58,33.58,0,0,1,24.13-7.82,31,31,0,0,1,18.2,7.49,3.41,3.41,0,0,1,.6.6.49.49,0,0,1,0,.47.47.47,0,0,1-.46.08,7.37,7.37,0,0,1-.85-.65A30.73,30.73,0,0,0,91,60.55a32.29,32.29,0,0,0-21.63,2.93c-2.09,1.05-4,2.42-6,3.65-.36.22-.69.48-1,.72Z" style="fill:#fff"/><path d="M104.15,114.62c-.4.29-.68.52-1,.7a33.57,33.57,0,0,1-21.87,5.14,31.11,31.11,0,0,1-20-10.13,3.07,3.07,0,0,1-.52-.68.47.47,0,0,1,.06-.45.48.48,0,0,1,.48,0,3.78,3.78,0,0,1,.61.59,30.89,30.89,0,0,0,17.42,9.56,32.53,32.53,0,0,0,17.76-1.76c2-.77,3.89-1.78,5.83-2.69.25-.12.5-.26.76-.37C103.79,114.5,103.87,114.55,104.15,114.62Z" style="fill:#fff"/><path d="M120.79,78.71a3.92,3.92,0,0,1-.29-.53,37.46,37.46,0,0,0-9.12-13.31,42,42,0,0,0-13.86-9.28A18.88,18.88,0,0,0,88.87,54c-.29,0-.58,0-.65-.43.25-.42.72-.31,1.11-.33a18.46,18.46,0,0,1,5.91.79A37.83,37.83,0,0,1,109,61.59a38.87,38.87,0,0,1,9.53,11,53.81,53.81,0,0,1,2.26,4.94,5.85,5.85,0,0,1,.25,1.1Z" style="fill:#fff"/><path d="M76.43,125.47c-.41,0-.82,0-1.23,0a18,18,0,0,1-5.85-1.59,36.77,36.77,0,0,1-11.8-8.36A39.53,39.53,0,0,1,48.13,101c-.38-1.08-.65-2.19-.92-3.3a6.77,6.77,0,0,1-.11-1.28l.23,0a3.54,3.54,0,0,1,.25.52c2.11,8.2,6.86,14.72,13,20.32a32.9,32.9,0,0,0,9.65,6.26,17,17,0,0,0,5.49,1.3C76.08,124.81,76.49,124.75,76.43,125.47Z" style="fill:#fff"/><path d="M88.23,72.69c-6.16-1-11.62.37-16.18,4.69a17,17,0,0,0-5.38,11.45,17.58,17.58,0,0,0,15,18.75,17,17,0,0,0,14-4.06A17.56,17.56,0,0,0,102,90.28c.53.06.46.4.42.64a30.79,30.79,0,0,1-.55,3.59A18.05,18.05,0,1,1,81.23,72.37,15.78,15.78,0,0,1,88.23,72.69Z" style="fill:#fff"/><path d="M99.37,119.49c-.93.42-1.85.88-2.8,1.24a28.29,28.29,0,0,1-11.78,1.65,40,40,0,0,1-19.08-6,27.41,27.41,0,0,1-9.18-9c-.17-.27-.52-.52-.22-1,.15.1.33.15.4.27,3.59,6.07,9.13,9.71,15.47,12.25A38,38,0,0,0,90,121.56a28.57,28.57,0,0,0,8.18-2c.35-.15.71-.27,1.07-.41Z" style="fill:#fff"/><path d="M66.17,62.3c.36-.26.71-.53,1.08-.77A25.82,25.82,0,0,1,76.91,58a39.74,39.74,0,0,1,23.37,3.24,27.31,27.31,0,0,1,9.55,7.08c.35.41.65.87,1,1.36-.58.24-.71-.11-.89-.34a25.31,25.31,0,0,0-8.52-6.85,37.68,37.68,0,0,0-14-4.11,35.92,35.92,0,0,0-15.41,1.57c-1.67.58-3.26,1.41-4.89,2.13l-.9.45Z" style="fill:#fff"/><path d="M61.27,70.77c.38-.54.72-1.11,1.13-1.63a17.15,17.15,0,0,1,4.45-3.82A30.14,30.14,0,0,1,80.46,61,28.77,28.77,0,0,1,92.77,62.5,7.25,7.25,0,0,1,94,63a1.81,1.81,0,0,1,.42.54c-.45.42-.81.18-1.15,0A24.56,24.56,0,0,0,86.92,62a30.65,30.65,0,0,0-19.28,3.75,21.44,21.44,0,0,0-5.14,4.16c-.33.37-.67.72-1,1.08Z" style="fill:#fff"/><path d="M105.25,111.57a11.18,11.18,0,0,1-3.11,3,24.16,24.16,0,0,1-8.72,3.66,30.57,30.57,0,0,1-19.15-1.75,24.43,24.43,0,0,1-2.26-1.2c-.24-.13-.55-.36-.29-.66.1-.12.44-.07.67-.05a1,1,0,0,1,.37.19,27,27,0,0,0,11.3,3.3,30.29,30.29,0,0,0,13.14-1.75,22.78,22.78,0,0,0,7-4.13c.27-.23.56-.44.84-.66A1,1,0,0,1,105.25,111.57Z" style="fill:#fff"/><path d="M59.35,95.62c-.55-.14-.59-.58-.67-1a20,20,0,0,1,0-7.55A24.76,24.76,0,0,1,65,74.35a16.81,16.81,0,0,1,7-4.69,10.22,10.22,0,0,1,1.24-.31,1.39,1.39,0,0,1,.43.08,4.47,4.47,0,0,1-.59.36C66.88,72.23,63,77,60.67,83.08a20.49,20.49,0,0,0-1.14,11.44C59.6,94.89,59.71,95.29,59.35,95.62Z" style="fill:#fff"/><path d="M92.92,111.32a3.08,3.08,0,0,1,.47-.19,19.93,19.93,0,0,0,11-7,23.32,23.32,0,0,0,5.41-11.9,35,35,0,0,0,.15-3.84c0-.37-.12-.8.38-1,.51.21.45.67.48,1.08a19.81,19.81,0,0,1-.88,7.18,24.2,24.2,0,0,1-10.47,13.84,14.67,14.67,0,0,1-4.94,2c-.51.1-1,.12-1.55.17Z" style="fill:#fff"/><path d="M126.18,97.63a3.78,3.78,0,0,1,0-.83,24.45,24.45,0,0,0,.37-9.45,41.8,41.8,0,0,0-5.13-15.64c-1.06-1.85-2.39-3.53-3.6-5.29l-.54-.74.15-.18a2.18,2.18,0,0,1,.62.39,38.56,38.56,0,0,1,2.66,3.2,41.38,41.38,0,0,1,5.87,14.24,33,33,0,0,1,.85,10.29,28.1,28.1,0,0,1-.51,3.16C126.86,97.13,126.81,97.58,126.18,97.63Z" style="fill:#fff"/><path d="M49.22,109.79c-.56.08-.7-.31-.9-.56a19.8,19.8,0,0,1-2.67-4.49A43.73,43.73,0,0,1,42.2,91a32.72,32.72,0,0,1,.45-10.21c.22-1,.56-2,.87-3a1.17,1.17,0,0,1,.84-.93,2.46,2.46,0,0,1,0,.73c-2.54,7-1.81,14-.06,20.94a34.76,34.76,0,0,0,4.59,10.54A5.37,5.37,0,0,1,49.22,109.79Z" style="fill:#fff"/><path d="M76.73,112.27c-.59-.2-1-.3-1.37-.46-7-2.91-11.28-8.14-13.2-15.38a19.42,19.42,0,0,1,.37-11.17,4.58,4.58,0,0,1,.35-.89c.09-.13.33-.17.51-.25a4.21,4.21,0,0,1,.16.55c0,.1-.06.2-.1.3-2.66,8.56-.36,15.86,5.72,22.15a20.9,20.9,0,0,0,6.39,4.4c.3.13.59.27.87.41C76.49,112,76.52,112,76.73,112.27Z" style="fill:#fff"/><path d="M95.39,68.76c.88.51,1.81,1,2.65,1.55a22,22,0,0,1,9.51,15.8,20,20,0,0,1-1.78,11.15,5.16,5.16,0,0,1-.55.9.39.39,0,0,1-.38,0,.41.41,0,0,1-.17-.34,2.22,2.22,0,0,1,.22-.59c3.89-7.7,2-17.58-4.15-24A22.89,22.89,0,0,0,96,69.49c-.27-.16-.53-.34-.79-.51Z" style="fill:#fff"/><path d="M80.09,115.25c1,.15,2,.32,3,.43a28.1,28.1,0,0,0,15.35-2.23,16.44,16.44,0,0,0,6.37-4.92,10.82,10.82,0,0,1,.82-.8c.08.44.2.7.13.86a4.88,4.88,0,0,1-.66,1,16.18,16.18,0,0,1-5.35,4.19A26.79,26.79,0,0,1,81.55,116c-.51-.12-1-.31-1.51-.47Z" style="fill:#fff"/><path d="M85.78,64H84.24a30.1,30.1,0,0,0-12.95,2.31,22.87,22.87,0,0,0-5.67,3.41,15.35,15.35,0,0,0-3.42,3.94,4.29,4.29,0,0,1-.49.69.39.39,0,0,1-.38.07c-.12-.09-.25-.3-.22-.41a4.73,4.73,0,0,1,.44-1,16.05,16.05,0,0,1,4.21-4.52,26.57,26.57,0,0,1,12.59-5,21.79,21.79,0,0,1,6.4,0,10.34,10.34,0,0,1,1.07.25Z" style="fill:#fff"/><path d="M44.88,71.42c-.47.94-1,1.87-1.4,2.84a33.85,33.85,0,0,0-2.09,9.37,43.78,43.78,0,0,0,0,10c.2,1.62.59,3.22.91,4.83.07.33.32.66-.09,1-.49,0-.56-.48-.63-.84a52.57,52.57,0,0,1-1-5.24,45.62,45.62,0,0,1,1-15.62,17,17,0,0,1,2.07-5.25,12.77,12.77,0,0,1,1-1.3Z" style="fill:#fff"/><path d="M125.8,74.82c.27.53.54,1,.74,1.45a34.9,34.9,0,0,1,2.15,8.59,45.4,45.4,0,0,1,.26,11,19.5,19.5,0,0,1-1.46,6.11,3.81,3.81,0,0,1-1,1.35c0-.11,0-.25,0-.34a19.18,19.18,0,0,0,1.76-7.55,47,47,0,0,0-1.62-16.73c-.28-1-.69-1.87-1-2.8C125.43,75.58,125.15,75.25,125.8,74.82Z" style="fill:#fff"/><path d="M82.46,112.13a10.09,10.09,0,0,1-1.1,0c-8.71-.9-15.6-7.66-17.17-14.84a30.52,30.52,0,0,1-.39-3.82c0-.33-.06-.73.53-.85.23,1.6.37,3.17.68,4.7a12.56,12.56,0,0,0,1.8,4.44,26.31,26.31,0,0,0,3,3.89,19.7,19.7,0,0,0,3.74,3,21.93,21.93,0,0,0,4.32,2,44.76,44.76,0,0,0,4.63,1.16Z" style="fill:#fff"/><path d="M89.27,68.26a2.43,2.43,0,0,1,1.55.09A18.57,18.57,0,0,1,98.23,72a19.59,19.59,0,0,1,7.26,11.76,15.39,15.39,0,0,1,.1,5.11,1.8,1.8,0,0,1-.18.61.41.41,0,0,1-.34.16.47.47,0,0,1-.26-.29,1.36,1.36,0,0,1,0-.53,16.33,16.33,0,0,0-2.32-10.77,19.78,19.78,0,0,0-11.88-9.2c-.37-.1-.75-.22-1.12-.35C89.46,68.5,89.42,68.43,89.27,68.26Z" style="fill:#fff"/><path d="M104.39,74.4a10.61,10.61,0,0,1,.88.92A17.89,17.89,0,0,1,108.49,83a27,27,0,0,1-2.9,18,27.12,27.12,0,0,1-1.62,2.39.72.72,0,0,1-.57.27c.15-.27.28-.54.45-.79a27.17,27.17,0,0,0,4.29-17.22,18,18,0,0,0-3.78-10.28C104.16,75.17,103.93,74.92,104.39,74.4Z" style="fill:#fff"/><path d="M59,82.55a1.2,1.2,0,0,1-.14-1.43A25,25,0,0,1,60.39,78,28.66,28.66,0,0,1,73.7,66.48a21.42,21.42,0,0,1,3-.91A7.59,7.59,0,0,1,78,65.45c0,.59-.44.51-.69.58a27.22,27.22,0,0,0-10.85,6,24.88,24.88,0,0,0-5.35,6.22c-.59,1-1,2.1-1.55,3.16C59.42,81.74,59.25,82.06,59,82.55Z" style="fill:#fff"/><path d="M88,114.56a8.56,8.56,0,0,1,.87-.23,28.27,28.27,0,0,0,17.82-10.51,22.57,22.57,0,0,0,1.53-2.43,5.21,5.21,0,0,1,.46-.72.32.32,0,0,1,.54.28,5.84,5.84,0,0,1-.38,1,19.9,19.9,0,0,1-3.89,5.08,28.29,28.29,0,0,1-13.43,7.58,20.86,20.86,0,0,1-2.86.32,2.32,2.32,0,0,1-.66-.15Z" style="fill:#fff"/><path d="M87.49,109.42a2.67,2.67,0,0,1,.74,0c.17,0,.4.25.41.38a.58.58,0,0,1-.35.44,16.46,16.46,0,0,1-2.31.42,19.68,19.68,0,0,1-12.3-2.82A15.06,15.06,0,0,1,67.59,101,5.85,5.85,0,0,1,67,97.66a3.12,3.12,0,0,1,.28.53c1.27,5.08,4.73,8.17,9.32,10.18a18.17,18.17,0,0,0,10.48,1.21,2.34,2.34,0,0,0,.48-.18Z" style="fill:#fff"/><path d="M102.88,84.25a8.62,8.62,0,0,1-.22-1,12.6,12.6,0,0,0-2.94-6.55,18.37,18.37,0,0,0-12.24-6.54,9,9,0,0,0-3.51,0,.71.71,0,0,1-.52,0,2.46,2.46,0,0,1-.46-.5,2,2,0,0,1,.47-.37,2.6,2.6,0,0,1,.74-.11c6.62-.17,12.16,2.09,16.3,7.37a12,12,0,0,1,2.62,6.57,10.14,10.14,0,0,1,0,1.1Z" style="fill:#fff"/><path d="M64.11,78.46c-.13.31-.25.62-.39.93A27.25,27.25,0,0,0,61.9,98.06a17.58,17.58,0,0,0,4.79,8.69.78.78,0,0,1,.28.32.55.55,0,0,1,0,.46.47.47,0,0,1-.46,0,3.38,3.38,0,0,1-.64-.56A17.13,17.13,0,0,1,62,100.73a27,27,0,0,1,.35-19.55,23.19,23.19,0,0,1,1.23-2.37,3.07,3.07,0,0,1,.38-.44Z" style="fill:#fff"/><path d="M87.53,109.4l-2.14,0a18.62,18.62,0,0,1-10.17-2.36,6.57,6.57,0,0,1-2.48-2.18c.24.16.5.3.73.48,5.8,4.45,15.13,4.44,21,.61a29.59,29.59,0,0,0,2.5-2c.19-.15.32-.39.53-.52a1.54,1.54,0,0,1,.58-.08c0,.19.11.44,0,.57a4.12,4.12,0,0,1-.69.82,16.36,16.36,0,0,1-8,4.17c-.63.14-1.24.3-1.86.46Z" style="fill:#fff"/><path d="M98.17,76.55l-.52-.48a17.91,17.91,0,0,0-11.53-5,17.25,17.25,0,0,0-8.49,1.27A36.72,36.72,0,0,0,74,74.41a5.24,5.24,0,0,1-.61.44c-.13.06-.44,0-.46,0a.62.62,0,0,1,0-.55,5.44,5.44,0,0,1,.86-.8,15.65,15.65,0,0,1,7.59-2.95A20.22,20.22,0,0,1,94.5,73,9.23,9.23,0,0,1,98.17,76.55Z" style="fill:#fff"/></svg>